<!-- Generated by IcoMoon.io -->
<svg version="1.1" xmlns="http://www.w3.org/2000/svg" width="32" height="32" viewBox="0 0 32 32">
<title>linkedin</title>
<path fill="#3d6177" d="M21.345 9.891c-1.301-0.004-2.589 0.248-3.793 0.742s-2.297 1.221-3.219 2.138c-0.922 0.917-1.654 2.008-2.155 3.208s-0.759 2.488-0.761 3.789v9.978c0 0.405 0.161 0.793 0.447 1.080s0.675 0.447 1.080 0.447h3.564c0.405 0 0.793-0.161 1.080-0.447s0.447-0.675 0.447-1.080v-9.978c-0-0.463 0.097-0.92 0.285-1.343s0.464-0.801 0.808-1.11c0.344-0.309 0.75-0.542 1.19-0.684s0.905-0.189 1.365-0.139c0.825 0.104 1.583 0.507 2.13 1.132s0.846 1.43 0.84 2.262v9.86c0 0.405 0.161 0.793 0.447 1.080s0.675 0.447 1.080 0.447h3.564c0.405 0 0.793-0.161 1.080-0.447s0.447-0.675 0.447-1.080v-9.978c-0.002-1.301-0.261-2.588-0.761-3.789s-1.232-2.291-2.155-3.208c-0.922-0.917-2.016-1.644-3.219-2.138s-2.492-0.746-3.792-0.742z"></path>
<path fill="#3d6177" d="M6.836 11.418h-4.582c-0.844 0-1.527 0.684-1.527 1.527v16.8c0 0.843 0.684 1.527 1.527 1.527h4.582c0.843 0 1.527-0.684 1.527-1.527v-16.8c0-0.844-0.684-1.527-1.527-1.527z"></path>
<path fill="#3d6177" d="M4.545 8.364c2.109 0 3.818-1.709 3.818-3.818s-1.709-3.818-3.818-3.818c-2.109 0-3.818 1.709-3.818 3.818s1.709 3.818 3.818 3.818z"></path>
</svg>
