<!-- Generated by IcoMoon.io -->
<svg version="1.1" xmlns="http://www.w3.org/2000/svg" width="77" height="32" viewBox="0 0 77 32">
<title>logo</title>
<path fill="#3d6177" d="M9.766 30.576c-0.868 0-1.49-0.188-1.866-0.563-0.375-0.399-0.563-1.138-0.563-2.218 0-0.728 0.070-1.608 0.211-2.64s0.387-2.593 0.739-4.682c0.047-0.282 0.235-1.42 0.563-3.414 0.329-2.018 0.622-4.13 0.88-6.336 0.235-1.877 0.352-3.285 0.352-4.224 0-1.056-0.387-1.584-1.162-1.584-0.587 0-1.326 0.317-2.218 0.95-0.868 0.61-1.807 1.596-2.816 2.957-0.329 0.446-0.692 0.669-1.091 0.669-0.329 0-0.622-0.153-0.88-0.458-0.235-0.329-0.352-0.692-0.352-1.091s0.070-0.774 0.211-1.126c0.141-0.375 0.399-0.821 0.774-1.338 1.15-1.572 2.429-2.781 3.837-3.626 1.408-0.868 2.886-1.302 4.435-1.302 1.291 0 2.253 0.399 2.886 1.197 0.657 0.798 0.986 1.959 0.986 3.485 0 1.361-0.188 3.332-0.563 5.914 1.173-3.473 2.663-6.101 4.47-7.885 1.807-1.807 3.931-2.71 6.371-2.71 1.924 0 3.368 0.551 4.33 1.654 0.986 1.079 1.478 2.534 1.478 4.365 0 1.033-0.152 2.288-0.458 3.766l-2.147 10.067c-0.235 1.173-0.352 2.182-0.352 3.027 0 0.986 0.223 1.725 0.669 2.218 0.469 0.493 1.115 0.739 1.936 0.739 0.774 0 1.525-0.258 2.253-0.774 0.751-0.516 1.631-1.373 2.64-2.57 0.282-0.328 0.598-0.493 0.95-0.493 0.305 0 0.54 0.141 0.704 0.422 0.188 0.282 0.282 0.669 0.282 1.162 0 0.915-0.223 1.643-0.669 2.182-1.22 1.478-2.429 2.558-3.626 3.238s-2.452 1.021-3.766 1.021c-1.995 0-3.555-0.587-4.682-1.76-1.126-1.197-1.69-2.792-1.69-4.787 0-0.774 0.059-1.619 0.176-2.534 0.141-0.915 0.364-2.077 0.669-3.485l1.408-6.442c0.047-0.211 0.129-0.587 0.246-1.126s0.211-1.044 0.282-1.514c0.070-0.493 0.106-0.974 0.106-1.443 0-0.751-0.211-1.349-0.634-1.795s-1.021-0.669-1.795-0.669c-1.408 0-2.816 0.751-4.224 2.253s-2.71 3.931-3.907 7.286c-1.197 3.332-2.135 7.603-2.816 12.813-0.164 1.197-0.411 2.030-0.739 2.499-0.305 0.469-0.915 0.704-1.83 0.704z"></path>
<path fill="#3d6177" d="M52.351 19.594c0.305 0 0.54 0.152 0.704 0.458s0.246 0.692 0.246 1.162c0 1.126-0.34 1.795-1.021 2.006-1.408 0.493-2.957 0.774-4.646 0.845-0.446 1.971-1.326 3.555-2.64 4.752-1.314 1.173-2.804 1.76-4.47 1.76-1.408 0-2.616-0.34-3.626-1.021-0.986-0.68-1.736-1.584-2.253-2.71s-0.774-2.347-0.774-3.661c0-1.784 0.34-3.368 1.021-4.752 0.68-1.408 1.619-2.499 2.816-3.274 1.197-0.798 2.523-1.197 3.978-1.197 1.784 0 3.215 0.622 4.294 1.866 1.103 1.22 1.748 2.734 1.936 4.541 1.103-0.070 2.417-0.305 3.942-0.704 0.188-0.047 0.352-0.070 0.493-0.070zM40.805 26.845c0.751 0 1.396-0.305 1.936-0.915 0.563-0.61 0.939-1.49 1.126-2.64-0.728-0.493-1.291-1.138-1.69-1.936-0.376-0.798-0.563-1.643-0.563-2.534 0-0.376 0.035-0.751 0.106-1.126h-0.176c-0.939 0-1.725 0.458-2.358 1.373-0.61 0.892-0.915 2.159-0.915 3.802 0 1.291 0.246 2.276 0.739 2.957 0.516 0.68 1.115 1.021 1.795 1.021z"></path>
<path fill="#3d6177" d="M52.78 30.576c-0.892 0-1.525-0.469-1.901-1.408-0.352-0.939-0.528-2.44-0.528-4.506 0-3.051 0.434-5.949 1.302-8.694 0.211-0.681 0.551-1.173 1.021-1.478 0.493-0.329 1.173-0.493 2.042-0.493 0.469 0 0.798 0.059 0.986 0.176s0.282 0.34 0.282 0.669c0 0.375-0.176 1.22-0.528 2.534-0.235 0.939-0.422 1.76-0.563 2.464s-0.258 1.572-0.352 2.605c0.774-2.018 1.643-3.661 2.605-4.928s1.901-2.171 2.816-2.71c0.939-0.54 1.795-0.81 2.57-0.81 1.525 0 2.288 0.763 2.288 2.288 0 0.915-0.258 2.57-0.774 4.963-0.446 2.042-0.669 3.391-0.669 4.048 0 0.939 0.34 1.408 1.021 1.408 0.469 0 1.021-0.282 1.654-0.845 0.657-0.587 1.525-1.525 2.605-2.816 0.282-0.328 0.598-0.493 0.95-0.493 0.305 0 0.54 0.141 0.704 0.422 0.188 0.282 0.282 0.669 0.282 1.162 0 0.939-0.223 1.666-0.669 2.182-1.009 1.244-2.1 2.264-3.274 3.062-1.15 0.798-2.464 1.197-3.942 1.197-1.197 0-2.1-0.34-2.71-1.021-0.61-0.704-0.915-1.713-0.915-3.027 0-0.657 0.164-1.83 0.493-3.52 0.305-1.478 0.458-2.499 0.458-3.062 0-0.376-0.129-0.563-0.387-0.563-0.305 0-0.739 0.399-1.302 1.197-0.54 0.774-1.103 1.807-1.69 3.098-0.563 1.291-1.021 2.652-1.373 4.083-0.258 1.103-0.563 1.854-0.915 2.253-0.329 0.376-0.857 0.563-1.584 0.563z"></path>
<path fill="#3d6177" d="M72.6 11.674c-0.986 0-1.725-0.223-2.218-0.669-0.493-0.469-0.739-1.115-0.739-1.936s0.317-1.502 0.95-2.042c0.657-0.563 1.467-0.845 2.429-0.845 0.868 0 1.572 0.211 2.112 0.634s0.81 1.021 0.81 1.795c0 0.939-0.305 1.69-0.915 2.253-0.61 0.54-1.42 0.81-2.429 0.81zM69.221 30.576c-0.751 0-1.267-0.152-1.549-0.458s-0.422-0.786-0.422-1.443c0-0.188 0.024-0.516 0.070-0.986 0.376-4.294 0.997-8.202 1.866-11.722 0.188-0.727 0.493-1.232 0.915-1.514 0.446-0.305 1.15-0.458 2.112-0.458 1.009 0 1.514 0.411 1.514 1.232 0 0.117-0.023 0.34-0.070 0.669-1.056 5.022-1.69 9.234-1.901 12.637-0.047 0.751-0.27 1.279-0.669 1.584s-1.021 0.458-1.866 0.458z"></path>
</svg>
