<!-- Generated by IcoMoon.io -->
<svg version="1.1" xmlns="http://www.w3.org/2000/svg" width="35" height="32" viewBox="0 0 35 32">
<title>twitter</title>
<path fill="#3d6177" d="M10.283 30.933c2.76 0.092 5.511-0.37 8.090-1.358s4.933-2.484 6.924-4.399 3.578-4.208 4.667-6.746c1.089-2.538 1.658-5.268 1.674-8.030 1.265-1.565 2.204-3.368 2.763-5.301 0.042-0.153 0.038-0.314-0.010-0.465s-0.139-0.285-0.261-0.385c-0.122-0.101-0.271-0.164-0.428-0.182s-0.316 0.010-0.458 0.080c-0.662 0.319-1.407 0.421-2.13 0.294s-1.389-0.478-1.902-1.004c-0.655-0.718-1.448-1.296-2.331-1.702s-1.839-0.63-2.81-0.659c-0.971-0.030-1.939 0.136-2.845 0.487s-1.733 0.881-2.43 1.557c-0.955 0.925-1.655 2.082-2.031 3.358s-0.416 2.627-0.115 3.922c-6.253 0.373-10.547-2.595-13.981-6.664-0.103-0.117-0.238-0.201-0.388-0.243s-0.309-0.038-0.458 0.009c-0.148 0.047-0.28 0.137-0.378 0.258s-0.159 0.268-0.175 0.423c-0.654 3.63-0.182 7.373 1.353 10.726s4.059 6.157 7.234 8.034c-2.129 2.441-5.118 3.966-8.344 4.256-0.173 0.029-0.332 0.111-0.456 0.234s-0.206 0.283-0.235 0.456c-0.029 0.173-0.003 0.35 0.074 0.508s0.201 0.287 0.356 0.37c2.807 1.403 5.897 2.143 9.035 2.165z"></path>
</svg>
